<?xml version="1.0" encoding="UTF-8" standalone="no"?>
<!-- Created with Inkscape (http://www.inkscape.org/) -->

<svg
   width="400mm"
   height="400mm"
   viewBox="0 0 400 400"
   version="1.1"
   id="svg1"
   inkscape:version="1.3 (0e150ed6c4, 2023-07-21)"
   sodipodi:docname="logoAIS1.svg"
   xmlns:inkscape="http://www.inkscape.org/namespaces/inkscape"
   xmlns:sodipodi="http://sodipodi.sourceforge.net/DTD/sodipodi-0.dtd"
   xmlns="http://www.w3.org/2000/svg"
   xmlns:svg="http://www.w3.org/2000/svg">
  <sodipodi:namedview
     id="namedview1"
     pagecolor="#000000"
     bordercolor="#000000"
     borderopacity="0.25"
     inkscape:showpageshadow="2"
     inkscape:pageopacity="0.0"
     inkscape:pagecheckerboard="0"
     inkscape:deskcolor="#d1d1d1"
     inkscape:document-units="mm"
     inkscape:zoom="0.35355339"
     inkscape:cx="-89.095455"
     inkscape:cy="838.62864"
     inkscape:window-width="1920"
     inkscape:window-height="991"
     inkscape:window-x="-9"
     inkscape:window-y="-9"
     inkscape:window-maximized="1"
     inkscape:current-layer="layer1"
     showgrid="false"
     inkscape:clip-to-page="false" />
  <defs
     id="defs1">
    <clipPath
       clipPathUnits="userSpaceOnUse"
       id="clipPath33">
      <rect
         style="fill:#000000;stroke:none;stroke-width:0.999995;stroke-linecap:butt;stroke-linejoin:bevel;paint-order:stroke markers fill;stop-color:#000000"
         id="rect33"
         width="46.19186"
         height="80.006783"
         x="74.999985"
         y="399.99661" />
    </clipPath>
    <clipPath
       clipPathUnits="userSpaceOnUse"
       id="clipPath88">
      <rect
         style="fill:#ff0000;stroke:none;stroke-width:3;stroke-linecap:square;stroke-linejoin:miter;paint-order:stroke markers fill;stop-color:#000000"
         id="rect88"
         width="78"
         height="45.033199"
         x="763.61322"
         y="452.82422" />
    </clipPath>
    <linearGradient
       id="swatch81"
       inkscape:swatch="solid">
      <stop
         style="stop-color:#ee4c00;stop-opacity:1;"
         offset="0"
         id="stop81" />
    </linearGradient>
    <clipPath
       clipPathUnits="userSpaceOnUse"
       id="clipPath25">
      <rect
         style="fill:#ff0000;stroke:none;stroke-width:3;stroke-linecap:square;stroke-linejoin:miter;paint-order:stroke markers fill;stop-color:#000000"
         id="rect25-8"
         width="78"
         height="45.033199"
         x="763.61322"
         y="452.82422" />
    </clipPath>
  </defs>
  <g
     inkscape:label="Layer 1"
     inkscape:groupmode="layer"
     id="layer1">
    <path
       style="color:#000000;display:inline;fill:#ff6500;fill-opacity:1;stroke:#fb6300;stroke-width:3.56933;stroke-opacity:1;-inkscape-stroke:none"
       d="m 191.3132,13.224612 c -2.87659,-0.07931 2.77582,0.027 -24.60186,0.04188 -29.0976,0.01538 -80.558244,7.488747 -129.178871,21.973649 l -4.712621,1.40821 -1.331525,4.733535 C 12.693866,108.45276 8.0714576,163.11767 31.676537,217.27561 55.281621,271.43357 105.95738,323.9375 195.13347,390.12295 l 5.31912,3.94578 5.31915,-3.9388 C 293.41297,325.10447 344.05692,273.28183 368.413,220.08507 392.76914,166.88832 389.67808,113.2668 372.17055,48.206779 l -1.22695,-4.55925 -4.45467,-1.554607 C 315.07215,24.209735 258.81686,14.441102 201.63075,13.3989 h -0.007 l -10.213,-0.1743 z m -0.39042,17.839653 h 0.0419 l 10.33847,0.174285 c 53.67125,0.978141 106.3935,10.078169 154.67305,26.309826 15.82233,60.812044 17.89171,107.759734 -3.78543,155.105254 -21.75022,47.50519 -68.81598,96.76775 -151.73111,158.93953 C 116.07989,308.29688 69.085306,258.43298 48.038203,210.14398 27.071735,162.0399 30.430774,113.94361 47.529298,51.072009 93.049663,38.035951 141.68579,31.126234 166.71823,31.11307 c 27.53805,-0.01438 21.04809,-0.135454 24.20448,-0.04878 z"
       id="path6" />
  </g>
</svg>
